<?xml version="1.0" encoding="UTF-8" standalone="no"?><svg xmlns="http://www.w3.org/2000/svg" xmlns:xlink="http://www.w3.org/1999/xlink" contentScriptType="application/ecmascript" contentStyleType="text/css" height="142px" preserveAspectRatio="none" style="width:328px;height:142px;" version="1.1" viewBox="0 0 328 142" width="328px" zoomAndPan="magnify"><defs><filter height="300%" id="f3q0myvbygkyg" width="300%" x="-1" y="-1"><feGaussianBlur result="blurOut" stdDeviation="2.0"/><feColorMatrix in="blurOut" result="blurOut2" type="matrix" values="0 0 0 0 0 0 0 0 0 0 0 0 0 0 0 0 0 0 .4 0"/><feOffset dx="4.0" dy="4.0" in="blurOut2" result="blurOut3"/><feBlend in="SourceGraphic" in2="blurOut3" mode="normal"/></filter></defs><g><!--MD5=[b983d684e7da15fb3f2ce530bc980bb4]
class Barrio--><rect fill="#FEFECE" filter="url(#f3q0myvbygkyg)" height="124.8281" id="Barrio" style="stroke: #A80036; stroke-width: 1.5;" width="310" x="7" y="7"/><ellipse cx="139.25" cy="23" fill="#ADD1B2" rx="11" ry="11" style="stroke: #A80036; stroke-width: 1.0;"/><path d="M142.2188,28.6406 Q141.6406,28.9375 141,29.0859 Q140.3594,29.2344 139.6563,29.2344 Q137.1563,29.2344 135.8359,27.5859 Q134.5156,25.9375 134.5156,22.8125 Q134.5156,19.6875 135.8359,18.0313 Q137.1563,16.375 139.6563,16.375 Q140.3594,16.375 141.0078,16.5313 Q141.6563,16.6875 142.2188,16.9844 L142.2188,19.7031 Q141.5938,19.125 141,18.8516 Q140.4063,18.5781 139.7813,18.5781 Q138.4375,18.5781 137.75,19.6484 Q137.0625,20.7188 137.0625,22.8125 Q137.0625,24.9063 137.75,25.9766 Q138.4375,27.0469 139.7813,27.0469 Q140.4063,27.0469 141,26.7734 Q141.5938,26.5 142.2188,25.9219 L142.2188,28.6406 Z "/><text fill="#000000" font-family="sans-serif" font-size="12" lengthAdjust="spacingAndGlyphs" textLength="37" x="159.75" y="27.1543">Barrio</text><line style="stroke: #A80036; stroke-width: 1.5;" x1="8" x2="316" y1="39" y2="39"/><ellipse cx="18" cy="50" fill="none" rx="3" ry="3" style="stroke: #038048; stroke-width: 1.0;"/><text fill="#000000" font-family="sans-serif" font-size="11" lengthAdjust="spacingAndGlyphs" textLength="179" x="27" y="53.2104">elementos #lista de elementos</text><line style="stroke: #A80036; stroke-width: 1.5;" x1="8" x2="316" y1="59.8047" y2="59.8047"/><text fill="#000000" font-family="sans-serif" font-size="11" lengthAdjust="spacingAndGlyphs" textLength="298" x="13" y="74.0151">agregarElemento(elemento:(Hogar|Mascota|Huerta))</text><text fill="#000000" font-family="sans-serif" font-size="11" lengthAdjust="spacingAndGlyphs" textLength="285" x="13" y="86.8198">sacarElemento(elemento:(Hogar|Mascota|Huerta))</text><text fill="#000000" font-family="sans-serif" font-size="11" lengthAdjust="spacingAndGlyphs" textLength="169" x="13" y="99.6245">elementosBuenos() #Number</text><text fill="#000000" font-family="sans-serif" font-size="11" lengthAdjust="spacingAndGlyphs" textLength="159" x="13" y="112.4292">elementosMalos() #Number</text><text fill="#000000" font-family="sans-serif" font-size="11" lengthAdjust="spacingAndGlyphs" textLength="130" x="13" y="125.2339">esCopado() #booleano</text><!--MD5=[89f530112a80d33a3f1dba1f0b7f23fd]
@startuml
class Barrio {
	+elementos #lista de elementos
  agregarElemento(elemento:(Hogar|Mascota|Huerta)) 
	sacarElemento(elemento:(Hogar|Mascota|Huerta))
  elementosBuenos() #Number
	elementosMalos() #Number
  esCopado() #booleano
}
@enduml

PlantUML version 1.2019.12(Sun Nov 03 10:24:54 UTC 2019)
(GPL source distribution)
Java Runtime: OpenJDK Runtime Environment
JVM: OpenJDK 64-Bit Server VM
Java Version: 1.8.0_232-heroku-b09
Operating System: Linux
Default Encoding: UTF-8
Language: en
Country: US
--></g></svg>