<?xml version="1.0" encoding="UTF-8" standalone="no"?><svg xmlns="http://www.w3.org/2000/svg" xmlns:xlink="http://www.w3.org/1999/xlink" contentScriptType="application/ecmascript" contentStyleType="text/css" height="264px" preserveAspectRatio="none" style="width:1125px;height:264px;" version="1.1" viewBox="0 0 1125 264" width="1125px" zoomAndPan="magnify"><defs><filter height="300%" id="f1htc1qssrtbpi" width="300%" x="-1" y="-1"><feGaussianBlur result="blurOut" stdDeviation="2.0"/><feColorMatrix in="blurOut" result="blurOut2" type="matrix" values="0 0 0 0 0 0 0 0 0 0 0 0 0 0 0 0 0 0 .4 0"/><feOffset dx="4.0" dy="4.0" in="blurOut2" result="blurOut3"/><feBlend in="SourceGraphic" in2="blurOut3" mode="normal"/></filter></defs><g><!--MD5=[caf6c770eaff3b814c79f205cf342955]
class Hogar--><rect fill="#FEFECE" filter="url(#f1htc1qssrtbpi)" height="99.2188" id="Hogar" style="stroke: #A80036; stroke-width: 1.5;" width="480" x="100" y="8"/><ellipse cx="316.75" cy="24" fill="#ADD1B2" rx="11" ry="11" style="stroke: #A80036; stroke-width: 1.0;"/><path d="M319.7188,29.6406 Q319.1406,29.9375 318.5,30.0859 Q317.8594,30.2344 317.1563,30.2344 Q314.6563,30.2344 313.3359,28.5859 Q312.0156,26.9375 312.0156,23.8125 Q312.0156,20.6875 313.3359,19.0313 Q314.6563,17.375 317.1563,17.375 Q317.8594,17.375 318.5078,17.5313 Q319.1563,17.6875 319.7188,17.9844 L319.7188,20.7031 Q319.0938,20.125 318.5,19.8516 Q317.9063,19.5781 317.2813,19.5781 Q315.9375,19.5781 315.25,20.6484 Q314.5625,21.7188 314.5625,23.8125 Q314.5625,25.9063 315.25,26.9766 Q315.9375,28.0469 317.2813,28.0469 Q317.9063,28.0469 318.5,27.7734 Q319.0938,27.5 319.7188,26.9219 L319.7188,29.6406 Z "/><text fill="#000000" font-family="sans-serif" font-size="12" lengthAdjust="spacingAndGlyphs" textLength="38" x="337.25" y="28.1543">Hogar</text><line style="stroke: #A80036; stroke-width: 1.5;" x1="101" x2="579" y1="40" y2="40"/><ellipse cx="111" cy="51" fill="none" rx="3" ry="3" style="stroke: #038048; stroke-width: 1.0;"/><text fill="#000000" font-family="sans-serif" font-size="11" lengthAdjust="spacingAndGlyphs" textLength="119" x="120" y="54.2104">nivelMugre #Number</text><ellipse cx="111" cy="63.8047" fill="none" rx="3" ry="3" style="stroke: #038048; stroke-width: 1.0;"/><text fill="#000000" font-family="sans-serif" font-size="11" lengthAdjust="spacingAndGlyphs" textLength="98" x="120" y="67.0151">confort #Number</text><line style="stroke: #A80036; stroke-width: 1.5;" x1="101" x2="579" y1="73.6094" y2="73.6094"/><text fill="#000000" font-family="sans-serif" font-size="11" lengthAdjust="spacingAndGlyphs" textLength="123" x="106" y="87.8198">esBueno() #booleano</text><text fill="#000000" font-family="sans-serif" font-size="11" lengthAdjust="spacingAndGlyphs" textLength="468" x="106" y="100.6245">fueAtacado(plaga: (PlagaCucaracha|PlagaMosquito|PlagaPulgas|PlagaGarrapatas))</text><!--MD5=[3edb6152a011cbfbe7dd802d0966b8dc]
class Mascota--><rect fill="#FEFECE" filter="url(#f1htc1qssrtbpi)" height="86.4141" id="Mascota" style="stroke: #A80036; stroke-width: 1.5;" width="499" x="615.5" y="14.5"/><ellipse cx="834.25" cy="30.5" fill="#ADD1B2" rx="11" ry="11" style="stroke: #A80036; stroke-width: 1.0;"/><path d="M837.2188,36.1406 Q836.6406,36.4375 836,36.5859 Q835.3594,36.7344 834.6563,36.7344 Q832.1563,36.7344 830.8359,35.0859 Q829.5156,33.4375 829.5156,30.3125 Q829.5156,27.1875 830.8359,25.5313 Q832.1563,23.875 834.6563,23.875 Q835.3594,23.875 836.0078,24.0313 Q836.6563,24.1875 837.2188,24.4844 L837.2188,27.2031 Q836.5938,26.625 836,26.3516 Q835.4063,26.0781 834.7813,26.0781 Q833.4375,26.0781 832.75,27.1484 Q832.0625,28.2188 832.0625,30.3125 Q832.0625,32.4063 832.75,33.4766 Q833.4375,34.5469 834.7813,34.5469 Q835.4063,34.5469 836,34.2734 Q836.5938,34 837.2188,33.4219 L837.2188,36.1406 Z "/><text fill="#000000" font-family="sans-serif" font-size="12" lengthAdjust="spacingAndGlyphs" textLength="53" x="854.75" y="34.6543">Mascota</text><line style="stroke: #A80036; stroke-width: 1.5;" x1="616.5" x2="1113.5" y1="46.5" y2="46.5"/><ellipse cx="626.5" cy="57.5" fill="none" rx="3" ry="3" style="stroke: #038048; stroke-width: 1.0;"/><text fill="#000000" font-family="sans-serif" font-size="11" lengthAdjust="spacingAndGlyphs" textLength="116" x="635.5" y="60.7104">nivelSalud #Number</text><line style="stroke: #A80036; stroke-width: 1.5;" x1="616.5" x2="1113.5" y1="67.3047" y2="67.3047"/><text fill="#000000" font-family="sans-serif" font-size="11" lengthAdjust="spacingAndGlyphs" textLength="468" x="621.5" y="81.5151">fueAtacado(plaga: (PlagaCucaracha|PlagaMosquito|PlagaPulgas|PlagaGarrapatas))</text><text fill="#000000" font-family="sans-serif" font-size="11" lengthAdjust="spacingAndGlyphs" textLength="7" x="1101.5" y="81.5151">}</text><text fill="#000000" font-family="sans-serif" font-size="11" lengthAdjust="spacingAndGlyphs" textLength="124" x="621.5" y="94.3198">esBueno() #Booleano</text><!--MD5=[5d45fcca11506cdb98747689151496f2]
class Huerta--><rect fill="#FEFECE" filter="url(#f1htc1qssrtbpi)" height="86.4141" id="Huerta" style="stroke: #A80036; stroke-width: 1.5;" width="668" x="6" y="167"/><ellipse cx="314.25" cy="183" fill="#ADD1B2" rx="11" ry="11" style="stroke: #A80036; stroke-width: 1.0;"/><path d="M317.2188,188.6406 Q316.6406,188.9375 316,189.0859 Q315.3594,189.2344 314.6563,189.2344 Q312.1563,189.2344 310.8359,187.5859 Q309.5156,185.9375 309.5156,182.8125 Q309.5156,179.6875 310.8359,178.0313 Q312.1563,176.375 314.6563,176.375 Q315.3594,176.375 316.0078,176.5313 Q316.6563,176.6875 317.2188,176.9844 L317.2188,179.7031 Q316.5938,179.125 316,178.8516 Q315.4063,178.5781 314.7813,178.5781 Q313.4375,178.5781 312.75,179.6484 Q312.0625,180.7188 312.0625,182.8125 Q312.0625,184.9063 312.75,185.9766 Q313.4375,187.0469 314.7813,187.0469 Q315.4063,187.0469 316,186.7734 Q316.5938,186.5 317.2188,185.9219 L317.2188,188.6406 Z "/><text fill="#000000" font-family="sans-serif" font-size="12" lengthAdjust="spacingAndGlyphs" textLength="43" x="334.75" y="187.1543">Huerta</text><line style="stroke: #A80036; stroke-width: 1.5;" x1="7" x2="673" y1="199" y2="199"/><ellipse cx="17" cy="210" fill="none" rx="3" ry="3" style="stroke: #038048; stroke-width: 1.0;"/><text fill="#000000" font-family="sans-serif" font-size="11" lengthAdjust="spacingAndGlyphs" textLength="177" x="26" y="213.2104">capacidadProduccion #Number</text><line style="stroke: #A80036; stroke-width: 1.5;" x1="7" x2="673" y1="219.8047" y2="219.8047"/><text fill="#000000" font-family="sans-serif" font-size="11" lengthAdjust="spacingAndGlyphs" textLength="124" x="12" y="234.0151">esBueno() #Booleano</text><text fill="#000000" font-family="sans-serif" font-size="11" lengthAdjust="spacingAndGlyphs" textLength="656" x="12" y="246.8198">fueAtacado(plaga:(PlagaCucaracha|PlagaMosquito|PlagaPulgas|PlagaGarrapatas)) { #indicacion - no devuelve nada</text><rect fill="#FEFECE" filter="url(#f1htc1qssrtbpi)" height="37.6094" style="stroke: #A80036; stroke-width: 1.5;" width="150" x="709" y="191"/><text fill="#000000" font-family="sans-serif" font-size="12" lengthAdjust="spacingAndGlyphs" textLength="27" x="770.5" y="204.1387">INTA</text><line style="stroke: #A80036; stroke-width: 1.5;" x1="710" x2="858" y1="208.9688" y2="208.9688"/><text fill="#000000" font-family="sans-serif" font-size="10" lengthAdjust="spacingAndGlyphs" textLength="138" x="715" y="222.251">produccionMinima #Number</text><!--MD5=[aaa89b02745b1321a4856ef9d7b7d361]
link Hogar to Mascota--><!--MD5=[4fb00c745edd6636d3cd1da1aaaf8bf2]
link Hogar to Huerta--><!--MD5=[1811926a5e38345367ad76fe194e2bad]
link Huerta to INTA--><!--MD5=[1b9dec87a9866a84f30476458351ff55]
@startuml
class Hogar {
  +nivelMugre #Number
	+confort #Number
  esBueno() #booleano
  fueAtacado(plaga: (PlagaCucaracha|PlagaMosquito|PlagaPulgas|PlagaGarrapatas)) 
}
class Mascota {
  +nivelSalud #Number
	fueAtacado(plaga: (PlagaCucaracha|PlagaMosquito|PlagaPulgas|PlagaGarrapatas))	}
  esBueno() #Booleano
}
class Huerta {
	+capacidadProduccion #Number
	esBueno() #Booleano
	fueAtacado(plaga:(PlagaCucaracha|PlagaMosquito|PlagaPulgas|PlagaGarrapatas)) { #indicacion - no devuelve nada
}
object INTA {
	produccionMinima #Number
}
@enduml

PlantUML version 1.2019.12(Sun Nov 03 10:24:54 UTC 2019)
(GPL source distribution)
Java Runtime: OpenJDK Runtime Environment
JVM: OpenJDK 64-Bit Server VM
Java Version: 1.8.0_232-heroku-b09
Operating System: Linux
Default Encoding: UTF-8
Language: en
Country: US
--></g></svg>