<?xml version="1.0" encoding="UTF-8" standalone="no"?><svg xmlns="http://www.w3.org/2000/svg" xmlns:xlink="http://www.w3.org/1999/xlink" contentScriptType="application/ecmascript" contentStyleType="text/css" height="384px" preserveAspectRatio="none" style="width:1023px;height:384px;" version="1.1" viewBox="0 0 1023 384" width="1023px" zoomAndPan="magnify"><defs><filter height="300%" id="ffarcjt8wvqnx" width="300%" x="-1" y="-1"><feGaussianBlur result="blurOut" stdDeviation="2.0"/><feColorMatrix in="blurOut" result="blurOut2" type="matrix" values="0 0 0 0 0 0 0 0 0 0 0 0 0 0 0 0 0 0 .4 0"/><feOffset dx="4.0" dy="4.0" in="blurOut2" result="blurOut3"/><feBlend in="SourceGraphic" in2="blurOut3" mode="normal"/></filter></defs><g><!--MD5=[d29d007d2d15d10f09bca437cf5aa87d]
class Plaga--><rect fill="#FEFECE" filter="url(#ffarcjt8wvqnx)" height="86.4141" id="Plaga" style="stroke: #A80036; stroke-width: 1.5;" width="306" x="399.5" y="8"/><ellipse cx="530.75" cy="24" fill="#ADD1B2" rx="11" ry="11" style="stroke: #A80036; stroke-width: 1.0;"/><path d="M533.7188,29.6406 Q533.1406,29.9375 532.5,30.0859 Q531.8594,30.2344 531.1563,30.2344 Q528.6563,30.2344 527.3359,28.5859 Q526.0156,26.9375 526.0156,23.8125 Q526.0156,20.6875 527.3359,19.0313 Q528.6563,17.375 531.1563,17.375 Q531.8594,17.375 532.5078,17.5313 Q533.1563,17.6875 533.7188,17.9844 L533.7188,20.7031 Q533.0938,20.125 532.5,19.8516 Q531.9063,19.5781 531.2813,19.5781 Q529.9375,19.5781 529.25,20.6484 Q528.5625,21.7188 528.5625,23.8125 Q528.5625,25.9063 529.25,26.9766 Q529.9375,28.0469 531.2813,28.0469 Q531.9063,28.0469 532.5,27.7734 Q533.0938,27.5 533.7188,26.9219 L533.7188,29.6406 Z "/><text fill="#000000" font-family="sans-serif" font-size="12" lengthAdjust="spacingAndGlyphs" textLength="35" x="551.25" y="28.1543">Plaga</text><line style="stroke: #A80036; stroke-width: 1.5;" x1="400.5" x2="704.5" y1="40" y2="40"/><ellipse cx="410.5" cy="51" fill="none" rx="3" ry="3" style="stroke: #038048; stroke-width: 1.0;"/><text fill="#000000" font-family="sans-serif" font-size="11" lengthAdjust="spacingAndGlyphs" textLength="112" x="419.5" y="54.2104">poblacion #Numero</text><line style="stroke: #A80036; stroke-width: 1.5;" x1="400.5" x2="704.5" y1="60.8047" y2="60.8047"/><text fill="#000000" font-family="sans-serif" font-size="11" lengthAdjust="spacingAndGlyphs" textLength="244" x="405.5" y="75.0151">method transmiteEnfermedad() #booleano</text><text fill="#000000" font-family="sans-serif" font-size="11" lengthAdjust="spacingAndGlyphs" textLength="294" x="405.5" y="87.8198">method atacar(elemento :(hogar|huerta|mascota)){</text><!--MD5=[28868e6f4b13f1befb61a82999dbc165]
class PlagaCucaracha--><rect fill="#FEFECE" filter="url(#ffarcjt8wvqnx)" height="99.2188" id="PlagaCucaracha" style="stroke: #A80036; stroke-width: 1.5;" width="357" x="6" y="154"/><ellipse cx="129.25" cy="170" fill="#ADD1B2" rx="11" ry="11" style="stroke: #A80036; stroke-width: 1.0;"/><path d="M132.2188,175.6406 Q131.6406,175.9375 131,176.0859 Q130.3594,176.2344 129.6563,176.2344 Q127.1563,176.2344 125.8359,174.5859 Q124.5156,172.9375 124.5156,169.8125 Q124.5156,166.6875 125.8359,165.0313 Q127.1563,163.375 129.6563,163.375 Q130.3594,163.375 131.0078,163.5313 Q131.6563,163.6875 132.2188,163.9844 L132.2188,166.7031 Q131.5938,166.125 131,165.8516 Q130.4063,165.5781 129.7813,165.5781 Q128.4375,165.5781 127.75,166.6484 Q127.0625,167.7188 127.0625,169.8125 Q127.0625,171.9063 127.75,172.9766 Q128.4375,174.0469 129.7813,174.0469 Q130.4063,174.0469 131,173.7734 Q131.5938,173.5 132.2188,172.9219 L132.2188,175.6406 Z "/><text fill="#000000" font-family="sans-serif" font-size="12" lengthAdjust="spacingAndGlyphs" textLength="102" x="149.75" y="174.1543">PlagaCucaracha</text><line style="stroke: #A80036; stroke-width: 1.5;" x1="7" x2="362" y1="186" y2="186"/><ellipse cx="17" cy="197" fill="none" rx="3" ry="3" style="stroke: #038048; stroke-width: 1.0;"/><text fill="#000000" font-family="sans-serif" font-size="11" lengthAdjust="spacingAndGlyphs" textLength="140" x="26" y="200.2104">pesoPromedio #Numero</text><line style="stroke: #A80036; stroke-width: 1.5;" x1="7" x2="362" y1="206.8047" y2="206.8047"/><text fill="#000000" font-family="sans-serif" font-size="11" lengthAdjust="spacingAndGlyphs" textLength="171" x="12" y="221.0151">method nivelDanio() #Numero</text><text fill="#000000" font-family="sans-serif" font-size="11" lengthAdjust="spacingAndGlyphs" textLength="296" x="12" y="233.8198">override method transmiteEnfermedad() #Booleano</text><text fill="#000000" font-family="sans-serif" font-size="11" lengthAdjust="spacingAndGlyphs" textLength="345" x="12" y="246.6245">override method atacar(elemento:(hogar|huerta|mascota)) {</text><!--MD5=[fbc83b2da738744191ef6abc09ea8764]
class PlagaMosquito--><rect fill="#FEFECE" filter="url(#ffarcjt8wvqnx)" height="73.6094" id="PlagaMosquito" style="stroke: #A80036; stroke-width: 1.5;" width="308" x="398.5" y="166.5"/><ellipse cx="502.25" cy="182.5" fill="#ADD1B2" rx="11" ry="11" style="stroke: #A80036; stroke-width: 1.0;"/><path d="M505.2188,188.1406 Q504.6406,188.4375 504,188.5859 Q503.3594,188.7344 502.6563,188.7344 Q500.1563,188.7344 498.8359,187.0859 Q497.5156,185.4375 497.5156,182.3125 Q497.5156,179.1875 498.8359,177.5313 Q500.1563,175.875 502.6563,175.875 Q503.3594,175.875 504.0078,176.0313 Q504.6563,176.1875 505.2188,176.4844 L505.2188,179.2031 Q504.5938,178.625 504,178.3516 Q503.4063,178.0781 502.7813,178.0781 Q501.4375,178.0781 500.75,179.1484 Q500.0625,180.2188 500.0625,182.3125 Q500.0625,184.4063 500.75,185.4766 Q501.4375,186.5469 502.7813,186.5469 Q503.4063,186.5469 504,186.2734 Q504.5938,186 505.2188,185.4219 L505.2188,188.1406 Z "/><text fill="#000000" font-family="sans-serif" font-size="12" lengthAdjust="spacingAndGlyphs" textLength="92" x="522.75" y="186.6543">PlagaMosquito</text><line style="stroke: #A80036; stroke-width: 1.5;" x1="399.5" x2="705.5" y1="198.5" y2="198.5"/><line style="stroke: #A80036; stroke-width: 1.5;" x1="399.5" x2="705.5" y1="206.5" y2="206.5"/><text fill="#000000" font-family="sans-serif" font-size="11" lengthAdjust="spacingAndGlyphs" textLength="171" x="404.5" y="220.7104">method nivelDanio() #Numero</text><text fill="#000000" font-family="sans-serif" font-size="11" lengthAdjust="spacingAndGlyphs" textLength="296" x="404.5" y="233.5151">override method transmiteEnfermedad() #Booleano</text><!--MD5=[2027e43d9189127b890db6a5f3d4450c]
class PlagaPulgas--><rect fill="#FEFECE" filter="url(#ffarcjt8wvqnx)" height="60.8047" id="PlagaPulgas" style="stroke: #A80036; stroke-width: 1.5;" width="183" x="742" y="173"/><ellipse cx="790.75" cy="189" fill="#ADD1B2" rx="11" ry="11" style="stroke: #A80036; stroke-width: 1.0;"/><path d="M793.7188,194.6406 Q793.1406,194.9375 792.5,195.0859 Q791.8594,195.2344 791.1563,195.2344 Q788.6563,195.2344 787.3359,193.5859 Q786.0156,191.9375 786.0156,188.8125 Q786.0156,185.6875 787.3359,184.0313 Q788.6563,182.375 791.1563,182.375 Q791.8594,182.375 792.5078,182.5313 Q793.1563,182.6875 793.7188,182.9844 L793.7188,185.7031 Q793.0938,185.125 792.5,184.8516 Q791.9063,184.5781 791.2813,184.5781 Q789.9375,184.5781 789.25,185.6484 Q788.5625,186.7188 788.5625,188.8125 Q788.5625,190.9063 789.25,191.9766 Q789.9375,193.0469 791.2813,193.0469 Q791.9063,193.0469 792.5,192.7734 Q793.0938,192.5 793.7188,191.9219 L793.7188,194.6406 Z "/><text fill="#000000" font-family="sans-serif" font-size="12" lengthAdjust="spacingAndGlyphs" textLength="77" x="811.25" y="193.1543">PlagaPulgas</text><line style="stroke: #A80036; stroke-width: 1.5;" x1="743" x2="924" y1="205" y2="205"/><line style="stroke: #A80036; stroke-width: 1.5;" x1="743" x2="924" y1="213" y2="213"/><text fill="#000000" font-family="sans-serif" font-size="11" lengthAdjust="spacingAndGlyphs" textLength="171" x="748" y="227.2104">method nivelDanio() #Numero</text><!--MD5=[6eaa4250f85cb3c5546052bf2d55a2b4]
class PlagaGarrapatas--><rect fill="#FEFECE" filter="url(#ffarcjt8wvqnx)" height="60.8047" id="PlagaGarrapatas" style="stroke: #A80036; stroke-width: 1.5;" width="357" x="655" y="313"/><ellipse cx="776.25" cy="329" fill="#ADD1B2" rx="11" ry="11" style="stroke: #A80036; stroke-width: 1.0;"/><path d="M779.2188,334.6406 Q778.6406,334.9375 778,335.0859 Q777.3594,335.2344 776.6563,335.2344 Q774.1563,335.2344 772.8359,333.5859 Q771.5156,331.9375 771.5156,328.8125 Q771.5156,325.6875 772.8359,324.0313 Q774.1563,322.375 776.6563,322.375 Q777.3594,322.375 778.0078,322.5313 Q778.6563,322.6875 779.2188,322.9844 L779.2188,325.7031 Q778.5938,325.125 778,324.8516 Q777.4063,324.5781 776.7813,324.5781 Q775.4375,324.5781 774.75,325.6484 Q774.0625,326.7188 774.0625,328.8125 Q774.0625,330.9063 774.75,331.9766 Q775.4375,333.0469 776.7813,333.0469 Q777.4063,333.0469 778,332.7734 Q778.5938,332.5 779.2188,331.9219 L779.2188,334.6406 Z "/><text fill="#000000" font-family="sans-serif" font-size="12" lengthAdjust="spacingAndGlyphs" textLength="106" x="796.75" y="333.1543">PlagaGarrapatas</text><line style="stroke: #A80036; stroke-width: 1.5;" x1="656" x2="1011" y1="345" y2="345"/><line style="stroke: #A80036; stroke-width: 1.5;" x1="656" x2="1011" y1="353" y2="353"/><text fill="#000000" font-family="sans-serif" font-size="11" lengthAdjust="spacingAndGlyphs" textLength="345" x="661" y="367.2104">override method atacar(elemento:(hogar|huerta|mascota)) {</text><!--MD5=[71cfa8c2baeadbd210f497030c07036b]
reverse link Plaga to PlagaCucaracha--><path d="M443.7517,96.0655 C399.8594,114.2546 349.0649,135.304 304.1305,153.9249 " fill="none" id="Plaga&lt;-PlagaCucaracha" style="stroke: #A80036; stroke-width: 1.0;"/><polygon fill="#A80036" points="448.5216,94.0889,438.6759,93.839,443.9025,96.003,441.7385,101.2296,448.5216,94.0889" style="stroke: #A80036; stroke-width: 1.0;"/><!--MD5=[d1a0a6758bbeec8847406cc5edc83a44]
reverse link Plaga to PlagaMosquito--><path d="M552.5,99.4265 C552.5,121.0693 552.5,146.178 552.5,166.3101 " fill="none" id="Plaga&lt;-PlagaMosquito" style="stroke: #A80036; stroke-width: 1.0;"/><polygon fill="#A80036" points="552.5,94.2925,548.5,103.2925,552.5,99.2925,556.5,103.2925,552.5,94.2925" style="stroke: #A80036; stroke-width: 1.0;"/><!--MD5=[5c5157f8561fe76b852b6de8d8f59b90]
reverse link Plaga to PlagaPulgas--><path d="M636.5392,96.6085 C681.9336,121.2442 736.7604,150.999 777.0295,172.8532 " fill="none" id="Plaga&lt;-PlagaPulgas" style="stroke: #A80036; stroke-width: 1.0;"/><polygon fill="#A80036" points="631.8966,94.0889,637.8988,101.8975,636.2911,96.4739,641.7147,94.8662,631.8966,94.0889" style="stroke: #A80036; stroke-width: 1.0;"/><!--MD5=[d107d3d1c4872c06235222f3bf710fa6]
reverse link PlagaPulgas to PlagaGarrapatas--><path d="M833.5,239.2691 C833.5,262.0173 833.5,291.1634 833.5,312.8481 " fill="none" id="PlagaPulgas&lt;-PlagaGarrapatas" style="stroke: #A80036; stroke-width: 1.0;"/><polygon fill="#A80036" points="833.5,234.2236,829.5,243.2236,833.5,239.2236,837.5,243.2236,833.5,234.2236" style="stroke: #A80036; stroke-width: 1.0;"/><!--MD5=[ed21eafc97223afab42f4d7b12572f21]
@startuml
class Plaga {
	+poblacion #Numero
	method transmiteEnfermedad() #booleano
	method atacar(elemento :(hogar|huerta|mascota)){
}
class PlagaCucaracha {
	+pesoPromedio #Numero
	method nivelDanio() #Numero
	override method transmiteEnfermedad() #Booleano 
	override method atacar(elemento:(hogar|huerta|mascota)) { 
}
class PlagaMosquito  {
	method nivelDanio() #Numero
	override method transmiteEnfermedad() #Booleano
}
class PlagaPulgas {
	method nivelDanio() #Numero
}
class PlagaGarrapatas { 
	override method atacar(elemento:(hogar|huerta|mascota)) { 
}


Plaga <- - PlagaCucaracha
Plaga <- - PlagaMosquito  
Plaga <- - PlagaPulgas
PlagaPulgas <- - PlagaGarrapatas
@enduml

PlantUML version 1.2019.12(Sun Nov 03 10:24:54 UTC 2019)
(GPL source distribution)
Java Runtime: OpenJDK Runtime Environment
JVM: OpenJDK 64-Bit Server VM
Java Version: 1.8.0_232-heroku-b09
Operating System: Linux
Default Encoding: UTF-8
Language: en
Country: US
--></g></svg>